<mxfile host="65bd71144e">
    <diagram id="veEzHfxFTNvwJ9gTXKz9" name="第 1 页">
        <mxGraphModel dx="626" dy="633" grid="1" gridSize="10" guides="1" tooltips="1" connect="1" arrows="1" fold="1" page="1" pageScale="1" pageWidth="827" pageHeight="1169" math="0" shadow="0">
            <root>
                <mxCell id="0"/>
                <mxCell id="1" parent="0"/>
                <mxCell id="23" value="" style="rounded=0;whiteSpace=wrap;html=1;fontColor=#333333;fillColor=#f5f5f5;strokeColor=#666666;" vertex="1" parent="1">
                    <mxGeometry x="175" y="40" width="450" height="440" as="geometry"/>
                </mxCell>
                <mxCell id="7" value="" style="rounded=0;whiteSpace=wrap;html=1;fillColor=#B2B0B8;strokeColor=#9673a6;" vertex="1" parent="1">
                    <mxGeometry x="210" y="340" width="390" height="110" as="geometry"/>
                </mxCell>
                <mxCell id="3" value="IM 业务层" style="rounded=0;whiteSpace=wrap;html=1;fillColor=#B2B0B8;strokeColor=#9673a6;fontColor=#000000;" vertex="1" parent="1">
                    <mxGeometry x="340" y="60" width="120" height="60" as="geometry"/>
                </mxCell>
                <mxCell id="4" value="" style="rounded=0;whiteSpace=wrap;html=1;fillColor=#B2B0B8;strokeColor=#9673a6;" vertex="1" parent="1">
                    <mxGeometry x="210" y="190" width="390" height="120" as="geometry"/>
                </mxCell>
                <mxCell id="5" value="mqtt" style="rounded=0;whiteSpace=wrap;html=1;fillColor=#f5f5f5;strokeColor=#666666;fontColor=#333333;" vertex="1" parent="1">
                    <mxGeometry x="255" y="365" width="120" height="60" as="geometry"/>
                </mxCell>
                <mxCell id="6" value="databse" style="rounded=0;whiteSpace=wrap;html=1;fillColor=#f5f5f5;strokeColor=#666666;fontColor=#333333;" vertex="1" parent="1">
                    <mxGeometry x="410" y="365" width="120" height="60" as="geometry"/>
                </mxCell>
                <mxCell id="13" value="" style="shape=flexArrow;endArrow=classic;startArrow=classic;html=1;fillColor=#A1A1A1;strokeColor=#666666;" edge="1" parent="1">
                    <mxGeometry width="100" height="100" relative="1" as="geometry">
                        <mxPoint x="394.5" y="180" as="sourcePoint"/>
                        <mxPoint x="394.5" y="130" as="targetPoint"/>
                    </mxGeometry>
                </mxCell>
                <mxCell id="14" value="消息收发" style="text;html=1;strokeColor=none;fillColor=none;align=center;verticalAlign=middle;whiteSpace=wrap;rounded=0;" vertex="1" parent="1">
                    <mxGeometry x="414" y="140" width="60" height="30" as="geometry"/>
                </mxCell>
                <mxCell id="15" value="序列化" style="rounded=0;whiteSpace=wrap;html=1;fillColor=#f5f5f5;strokeColor=#666666;fontColor=#333333;" vertex="1" parent="1">
                    <mxGeometry x="270" y="210" width="90" height="30" as="geometry"/>
                </mxCell>
                <mxCell id="16" value="IM" style="text;html=1;strokeColor=none;fillColor=none;align=center;verticalAlign=middle;whiteSpace=wrap;rounded=0;fontColor=#000000;" vertex="1" parent="1">
                    <mxGeometry x="210" y="190" width="40" height="30" as="geometry"/>
                </mxCell>
                <mxCell id="17" value="消息去重" style="rounded=0;whiteSpace=wrap;html=1;fillColor=#f5f5f5;strokeColor=#666666;fontColor=#333333;" vertex="1" parent="1">
                    <mxGeometry x="425" y="210" width="90" height="30" as="geometry"/>
                </mxCell>
                <mxCell id="18" value="连接网络" style="rounded=0;whiteSpace=wrap;html=1;fillColor=#f5f5f5;strokeColor=#666666;fontColor=#333333;" vertex="1" parent="1">
                    <mxGeometry x="270" y="260" width="90" height="30" as="geometry"/>
                </mxCell>
                <mxCell id="19" value="连接数据库" style="rounded=0;whiteSpace=wrap;html=1;fillColor=#f5f5f5;strokeColor=#666666;fontColor=#333333;" vertex="1" parent="1">
                    <mxGeometry x="425" y="260" width="90" height="30" as="geometry"/>
                </mxCell>
                <mxCell id="22" value="数据层" style="text;html=1;strokeColor=none;fillColor=none;align=center;verticalAlign=middle;whiteSpace=wrap;rounded=0;fontColor=#000000;" vertex="1" parent="1">
                    <mxGeometry x="210" y="340" width="40" height="30" as="geometry"/>
                </mxCell>
            </root>
        </mxGraphModel>
    </diagram>
</mxfile>